<?xml version="1.0"?>
<svg xmlns="http://www.w3.org/2000/svg" height="512px" viewBox="0 -46 512.0005 512" width="512px"><path d="m423.835938 268.191406c-2.8125-2.8125-6.628907-4.394531-10.605469-4.394531-3.980469 0-7.792969 1.582031-10.605469 4.394531l-10.609375 10.605469-20.910156-20.90625c30.773437-41.097656 27.496093-99.789063-9.84375-137.132813-8.746094-8.742187-18.664063-15.613281-29.25-20.621093v-85.136719c0-8.285156-6.714844-15-15-15h-272.011719c-24.8125 0-45 20.1875-45 45.003906v330.011719c0 24.8125 20.1875 45 45 45h272.011719c8.285156 0 15-6.714844 15-15 0-11.054687 0-103.652344 0-115.136719 6.226562-2.945312 12.222656-6.539062 17.882812-10.773437l20.90625 20.90625-10.605469 10.609375c-5.859374 5.855468-5.859374 15.355468 0 21.210937l75.003907 75.003907c17.546875 17.546874 46.09375 17.546874 63.640625 0 17.546875-17.542969 17.546875-46.09375 0-63.640626zm-83.789063-20.148437c-29.242187 29.242187-76.828125 29.246093-106.070313 0-29.242187-29.242188-29.242187-76.824219 0-106.070313 29.242188-29.238281 76.828126-29.242187 106.070313 0 29.242187 29.246094 29.242187 76.828125 0 106.070313zm-295.046875-218.042969h15.003906v300.015625h-15.003906c-5.257812 0-10.304688.914063-15 2.578125v-287.589844c0-8.273437 6.730469-15.003906 15-15.003906zm257.011719 360.015625h-257.011719c-8.269531 0-15-6.730469-15-15s6.730469-15 15-15h257.011719zm0-60h-212.007813v-300.015625h212.007813v61.121094c-31.636719-4.527344-64.960938 5.351562-89.25 29.636718-40.941407 40.941407-40.941407 107.558594 0 148.5 24.007812 24.003907 57.203125 34.222657 89.25 29.636719zm175.613281 55.609375c-5.847656 5.847656-15.363281 5.847656-21.214844 0l-64.394531-64.398438 21.214844-21.214843 64.394531 64.398437c5.851562 5.847656 5.851562 15.363282 0 21.214844zm0 0" fill="#FFFFFF"/></svg>
